<svg width="16" height="16" viewBox="0 0 16 16" fill="none" xmlns="http://www.w3.org/2000/svg">
<rect x="0.00390625" width="16" height="16" rx="4" fill="#78ACFA" fill-opacity="0.3"/>
<path fill-rule="evenodd" clip-rule="evenodd" d="M7.53255 7.52865C7.72001 7.34118 8.00062 7.28271 8.2474 7.37956L12.2474 8.95117C12.5111 9.05478 12.6807 9.31385 12.6699 9.59701C12.6591 9.88003 12.4706 10.125 12.1999 10.2083L10.6797 10.6758L10.2122 12.196C10.1289 12.4667 9.88394 12.6551 9.60091 12.666C9.31776 12.6768 9.05869 12.5072 8.95508 12.2435L7.38346 8.24349C7.28662 7.99672 7.34509 7.71611 7.53255 7.52865ZM9.57552 12L10.1465 10.1426L12.0039 9.57161L8.00391 8L9.57552 12Z" fill="#78ACFA"/>
<path d="M10.0039 4C10.7403 4 11.3372 4.59695 11.3372 5.33333V7.33333C11.3372 7.51743 11.188 7.66667 11.0039 7.66667C10.8198 7.66667 10.6706 7.51743 10.6706 7.33333V5.33333C10.6706 4.96514 10.3721 4.66667 10.0039 4.66667H5.33724C4.96905 4.66667 4.67057 4.96514 4.67057 5.33333V10C4.67057 10.3682 4.96905 10.6667 5.33724 10.6667H7.33724C7.52133 10.6667 7.67057 10.8159 7.67057 11C7.67057 11.1841 7.52133 11.3333 7.33724 11.3333H5.33724C4.60086 11.3333 4.00391 10.7364 4.00391 10V5.33333C4.00391 4.59695 4.60086 4 5.33724 4H10.0039Z" fill="#78ACFA"/>
</svg>
