<svg width="16" height="16" viewBox="0 0 16 16" fill="none" xmlns="http://www.w3.org/2000/svg">
<path d="M12.5 3C12.7761 3 13 3.22386 13 3.5V12.5C13 12.7761 12.7761 13 12.5 13C12.2239 13 12 12.7761 12 12.5V3.5C12 3.22386 12.2239 3 12.5 3Z" fill="#2C2C2C"/>
<path fill-rule="evenodd" clip-rule="evenodd" d="M9 6C9.55228 6 10 6.44772 10 7V9L9.99512 9.10254C9.94379 9.60667 9.51768 10 9 10H7L6.89746 9.99512C6.39333 9.94379 6 9.51768 6 9V7C6 6.44772 6.44772 6 7 6H9ZM9 7H7V9H9V7Z" fill="#2C2C2C"/>
</svg>
