<svg width="25" height="24" viewBox="0 0 25 24" fill="none" xmlns="http://www.w3.org/2000/svg">
<g clip-path="url(#clip0_4761_2356)">
<path d="M12.2744 17.918C12.0803 18.0461 11.8164 18.0244 11.6455 17.8535L9.64551 15.8535C9.45025 15.6583 9.45025 15.3417 9.64551 15.1465C9.84077 14.9512 10.1573 14.9512 10.3525 15.1465L11.499 16.293L11.499 9L7.99902 9C7.1706 9 6.49902 8.32843 6.49902 7.5C6.49902 6.67157 7.1706 6 7.99902 6L15.999 6C16.8275 6 17.499 6.67157 17.499 7.5C17.499 8.32843 16.8275 9 15.999 9L12.499 9L12.499 16.293L13.6455 15.1465C13.8408 14.9512 14.1573 14.9512 14.3525 15.1465C14.5478 15.3417 14.5478 15.6583 14.3525 15.8535L12.3525 17.8535L12.2744 17.918ZM15.999 8C16.2752 8 16.499 7.77614 16.499 7.5C16.499 7.22386 16.2752 7 15.999 7L7.99902 7C7.72288 7 7.49902 7.22386 7.49902 7.5C7.49902 7.77614 7.72288 8 7.99902 8L15.999 8ZM13.999 13C13.7229 13 13.499 12.7761 13.499 12.5C13.499 12.2239 13.7229 12 13.999 12L15.999 12C16.2752 12 16.499 11.7761 16.499 11.5C16.499 11.2239 16.2752 11 15.999 11L13.999 11C13.7229 11 13.499 10.7761 13.499 10.5C13.499 10.2239 13.7229 10 13.999 10L15.999 10C16.8275 10 17.499 10.6716 17.499 11.5C17.499 12.3284 16.8275 13 15.999 13L13.999 13ZM7.99902 13C7.1706 13 6.49902 12.3284 6.49902 11.5C6.49902 10.6716 7.1706 10 7.99902 10L9.99902 10C10.2752 10 10.499 10.2239 10.499 10.5C10.499 10.7761 10.2752 11 9.99902 11L7.99902 11C7.72288 11 7.49902 11.2239 7.49902 11.5C7.49902 11.7761 7.72288 12 7.99902 12L9.99902 12C10.2752 12 10.499 12.2239 10.499 12.5C10.499 12.7761 10.2752 13 9.99902 13L7.99902 13Z" fill="white" fill-opacity="0.9"/>
</g>
<defs>
<clipPath id="clip0_4761_2356">
<path d="M0.499023 5C0.499023 2.23858 2.7376 0 5.49902 0H19.499C22.2604 0 24.499 2.23858 24.499 5V19C24.499 21.7614 22.2604 24 19.499 24H5.49902C2.7376 24 0.499023 21.7614 0.499023 19V5Z" fill="white"/>
</clipPath>
</defs>
</svg>
