<svg width="16" height="16" viewBox="0 0 16 16" fill="none" xmlns="http://www.w3.org/2000/svg">
<path d="M0.00390625 4C0.00390625 1.79086 1.79477 0 4.00391 0H12.0039C14.213 0 16.0039 1.79086 16.0039 4V12C16.0039 14.2091 14.213 16 12.0039 16H4.00391C1.79477 16 0.00390625 14.2091 0.00390625 12V4Z" fill="white" fill-opacity="0.12"/>
<path fill-rule="evenodd" clip-rule="evenodd" d="M7.82023 4.0547C7.94962 3.96926 8.12559 3.98376 8.2395 4.09767L9.57284 5.43101C9.70301 5.56118 9.70301 5.77219 9.57284 5.90236C9.44266 6.03253 9.23166 6.03253 9.10148 5.90236L8.33716 5.13804V10H10.6705C11.2228 10 11.6705 10.4477 11.6705 11C11.6705 11.5523 11.2228 12 10.6705 12H5.33716C4.78487 12 4.33716 11.5523 4.33716 11C4.33716 10.4477 4.78487 10 5.33716 10H7.67049V5.13804L6.90617 5.90236C6.77599 6.03253 6.56499 6.03253 6.43481 5.90236C6.30464 5.77219 6.30464 5.56118 6.43481 5.43101L7.76815 4.09767L7.82023 4.0547ZM5.33716 10.6667C5.15306 10.6667 5.00382 10.8159 5.00382 11C5.00382 11.1841 5.15306 11.3333 5.33716 11.3333H10.6705C10.8546 11.3333 11.0038 11.1841 11.0038 11C11.0038 10.8159 10.8546 10.6667 10.6705 10.6667H5.33716Z" fill="white" fill-opacity="0.5"/>
<path d="M6.67049 7.33335C6.85459 7.33335 7.00382 7.48259 7.00382 7.66668C7.00382 7.85078 6.85459 8.00002 6.67049 8.00002H5.33716C5.15306 8.00002 5.00382 8.14925 5.00382 8.33335C5.00382 8.51744 5.15306 8.66668 5.33716 8.66668H6.67049C6.85459 8.66668 7.00382 8.81592 7.00382 9.00002C7.00382 9.18411 6.85459 9.33335 6.67049 9.33335H5.33716C4.78487 9.33335 4.33716 8.88563 4.33716 8.33335C4.33716 7.78106 4.78487 7.33335 5.33716 7.33335H6.67049Z" fill="white" fill-opacity="0.5"/>
<path d="M10.6705 7.33335C11.2228 7.33335 11.6705 7.78106 11.6705 8.33335C11.6705 8.88563 11.2228 9.33335 10.6705 9.33335H9.33716C9.15306 9.33335 9.00383 9.18411 9.00383 9.00002C9.00383 8.81592 9.15306 8.66668 9.33716 8.66668H10.6705C10.8546 8.66668 11.0038 8.51744 11.0038 8.33335C11.0038 8.14925 10.8546 8.00002 10.6705 8.00002H9.33716C9.15306 8.00002 9.00383 7.85078 9.00383 7.66668C9.00383 7.48259 9.15306 7.33335 9.33716 7.33335H10.6705Z" fill="white" fill-opacity="0.5"/>
</svg>
