<svg width="16" height="16" viewBox="0 0 16 16" fill="none" xmlns="http://www.w3.org/2000/svg">
<path d="M0.00390625 12C0.00390625 14.2091 1.79477 16 4.00391 16H12.0039C14.213 16 16.0039 14.2091 16.0039 12V4C16.0039 1.79086 14.213 0 12.0039 0H4.00391C1.79477 0 0.00390625 1.79086 0.00390625 4V12Z" fill="white" fill-opacity="0.12"/>
<path fill-rule="evenodd" clip-rule="evenodd" d="M7.82023 11.9453C7.94962 12.0307 8.12559 12.0162 8.2395 11.9023L9.57284 10.569C9.70301 10.4388 9.70301 10.2278 9.57284 10.0976C9.44266 9.96747 9.23166 9.96747 9.10148 10.0976L8.33716 10.862V5.99998H10.6705C11.2228 5.99998 11.6705 5.55227 11.6705 4.99998C11.6705 4.4477 11.2228 3.99998 10.6705 3.99998H5.33716C4.78487 3.99998 4.33716 4.4477 4.33716 4.99998C4.33716 5.55227 4.78487 5.99998 5.33716 5.99998H7.67049V10.862L6.90617 10.0976C6.77599 9.96747 6.56499 9.96747 6.43481 10.0976C6.30464 10.2278 6.30464 10.4388 6.43481 10.569L7.76815 11.9023L7.82023 11.9453ZM5.33716 5.33332C5.15306 5.33332 5.00382 5.18408 5.00382 4.99998C5.00382 4.81589 5.15306 4.66665 5.33716 4.66665H10.6705C10.8546 4.66665 11.0038 4.81589 11.0038 4.99998C11.0038 5.18408 10.8546 5.33332 10.6705 5.33332H5.33716Z" fill="white" fill-opacity="0.5"/>
<path d="M6.67049 8.66665C6.85459 8.66665 7.00382 8.51741 7.00382 8.33332C7.00382 8.14922 6.85459 7.99998 6.67049 7.99998H5.33716C5.15306 7.99998 5.00382 7.85075 5.00382 7.66665C5.00382 7.48256 5.15306 7.33332 5.33716 7.33332H6.67049C6.85459 7.33332 7.00382 7.18408 7.00382 6.99998C7.00382 6.81589 6.85459 6.66665 6.67049 6.66665H5.33716C4.78487 6.66665 4.33716 7.11437 4.33716 7.66665C4.33716 8.21894 4.78487 8.66665 5.33716 8.66665H6.67049Z" fill="white" fill-opacity="0.5"/>
<path d="M10.6705 8.66665C11.2228 8.66665 11.6705 8.21894 11.6705 7.66665C11.6705 7.11437 11.2228 6.66665 10.6705 6.66665H9.33716C9.15306 6.66665 9.00383 6.81589 9.00383 6.99998C9.00383 7.18408 9.15306 7.33332 9.33716 7.33332H10.6705C10.8546 7.33332 11.0038 7.48256 11.0038 7.66665C11.0038 7.85075 10.8546 7.99998 10.6705 7.99998H9.33716C9.15306 7.99998 9.00383 8.14922 9.00383 8.33332C9.00383 8.51741 9.15306 8.66665 9.33716 8.66665H10.6705Z" fill="white" fill-opacity="0.5"/>
</svg>
