<svg width="16" height="16" viewBox="0 0 16 16" fill="none" xmlns="http://www.w3.org/2000/svg">
<path d="M12.5 12C12.7761 12 13 12.2239 13 12.5C13 12.7761 12.7761 13 12.5 13H3.5C3.22386 13 3 12.7761 3 12.5C3 12.2239 3.22386 12 3.5 12H12.5Z" fill="#2C2C2C"/>
<path fill-rule="evenodd" clip-rule="evenodd" d="M9.10254 6.00488C9.60667 6.05621 10 6.48232 10 7V9L9.99512 9.10254C9.94379 9.60667 9.51768 10 9 10H7C6.44772 10 6 9.55228 6 9V7C6 6.44772 6.44772 6 7 6H9L9.10254 6.00488ZM7 9H9V7H7V9Z" fill="#2C2C2C"/>
</svg>
